<svg width="500" height="143" viewBox="0 0 500 143" fill="none" xmlns="http://www.w3.org/2000/svg">
<g clip-path="url(#clip0_4381_14821)">
<path d="M175.138 59.2281C175.987 58.6882 177.751 58.7529 177.751 58.7529H184.32C189.886 58.8083 195.411 57.8173 200.602 55.8325C205.366 54.0485 209.524 50.972 212.597 46.9568C215.61 42.9866 217.116 38.1002 217.116 32.2975C217.116 26.4186 215.706 21.494 212.886 17.5238C210.037 13.5302 206.07 10.4454 201.471 8.6481C196.348 6.63934 190.874 5.647 185.363 5.7277H162.004C162.004 5.7277 159.244 5.70422 157.716 6.83001C156.188 7.95579 156.277 10.0161 156.277 10.0161V81.5503C156.226 82.1087 156.385 82.6662 156.723 83.1164C157.215 83.4542 157.805 83.6256 158.403 83.6048H172.243C172.839 83.6482 173.43 83.4744 173.905 83.1164C174.433 82.5598 174.354 81.3785 174.354 81.3785V60.9134C174.338 60.591 174.401 60.2696 174.538 59.9763C174.674 59.6831 174.88 59.4265 175.138 59.2281V59.2281ZM184.784 20.1579C189.033 20.1579 192.336 21.2268 194.692 23.3646C197.048 25.5024 198.227 28.6327 198.227 32.7556C198.149 36.3441 196.894 39.1881 194.46 41.2878C192.027 43.3874 188.878 44.4372 185.015 44.4372H176.123C175.637 44.4513 175.16 44.3015 174.772 44.0123C174.484 43.6195 174.337 43.1433 174.354 42.6586V21.3959C174.341 21.2112 174.372 21.026 174.444 20.8553C174.517 20.6846 174.629 20.5332 174.772 20.4133C175.226 20.2111 175.724 20.1234 176.221 20.1579H184.784Z" fill="#3C3C3C"/>
<path d="M234.848 19.814C236.175 19.8341 237.492 19.5854 238.718 19.0831C239.944 18.5809 241.052 17.8357 241.975 16.8936C242.921 15.9994 243.671 14.9232 244.179 13.7316C244.687 12.5399 244.943 11.258 244.931 9.96483C244.951 8.6536 244.699 7.35215 244.191 6.14077C243.683 4.92939 242.929 3.83378 241.975 2.92153C241.052 1.97945 239.944 1.23428 238.718 0.731997C237.492 0.229718 236.175 -0.0190205 234.848 0.00113377C233.54 -0.0111194 232.243 0.241685 231.037 0.743959C229.831 1.24623 228.742 1.98733 227.837 2.92153C226.884 3.83378 226.13 4.92939 225.622 6.14077C225.113 7.35215 224.862 8.6536 224.882 9.96483C224.87 11.258 225.125 12.5399 225.634 13.7316C226.142 14.9232 226.892 15.9994 227.837 16.8936C228.742 17.8278 229.831 18.5689 231.037 19.0712C232.243 19.5734 233.54 19.8262 234.848 19.814ZM243.392 82.3144C243.816 81.7658 244.032 81.0877 244.004 80.3978V32.0682C244.004 32.0682 244.119 29.8922 243.064 28.747C242.008 27.6017 239.788 27.4872 239.788 27.4872H231.43C231.43 27.4872 228.596 27.5828 227.19 29.0905C225.784 30.5983 225.807 33.5181 225.807 33.5181V79.2577C225.807 79.2577 225.701 81.3312 226.618 82.2749C227.535 83.2186 229.486 83.0319 229.486 83.0319H241.35C242.089 83.0049 242.802 82.7545 243.392 82.3144V82.3144ZM318.813 82.0281C320.087 81.01 320.557 78.9565 320.557 78.9565L336.76 29.8069C336.76 29.8069 337.188 28.7046 336.76 28.1245C336.333 27.5444 335.048 27.4872 335.048 27.4872H321.83C321.052 27.5282 320.295 27.7464 319.617 28.1245C319.097 28.5369 318.732 29.1096 318.579 29.7513L312.306 57.0919C312.302 57.2033 312.276 57.3129 312.229 57.4143C312.183 57.5158 312.116 57.6071 312.034 57.6832C311.951 57.7592 311.855 57.8184 311.749 57.8573C311.643 57.8963 311.531 57.9143 311.418 57.9102C311.306 57.9143 311.193 57.8963 311.088 57.8573C310.982 57.8184 310.885 57.7592 310.803 57.6832C310.72 57.6071 310.654 57.5158 310.607 57.4143C310.561 57.3129 310.535 57.2033 310.531 57.0919L303.686 30.2112C303.563 29.4169 303.181 28.6842 302.597 28.1251C301.865 27.6856 301.02 27.4643 300.163 27.4878H287.565C286.74 27.51 285.933 27.7286 285.212 28.1251C284.67 28.5685 284.304 29.1872 284.178 29.8716L278.848 55.2017C278.848 55.2017 278.724 55.8889 277.244 56.3704C275.763 56.852 275.216 55.2017 275.216 55.2017L269.549 30.2867C269.549 30.2867 269.368 27.9355 268.081 27.0027C266.793 26.0699 264.4 26.5561 264.4 26.5561L256.212 28.9079C256.212 28.9079 253.599 29.5378 252.728 31.0907C251.856 32.6437 252.728 35.11 252.728 35.11L266.816 78.6799C266.816 78.6799 267.187 80.9441 268.636 82.0327C270.085 83.1212 272.61 83.0319 272.61 83.0319H280.513C280.513 83.0319 282.611 83.025 283.821 82.0304C285.032 81.0357 285.355 79.0527 285.355 79.0527L291.999 55.8322C292.05 55.4496 292.241 55.099 292.537 54.8474C292.833 54.5958 293.213 54.461 293.603 54.4687C293.997 54.4639 294.38 54.5988 294.682 54.8489C294.985 55.099 295.186 55.4478 295.251 55.8322L301.936 78.6456C301.936 78.6456 302.208 80.9361 303.728 82.0304C305.249 83.1247 308.019 83.0319 308.019 83.0319H315.448C315.448 83.0319 317.534 83.0485 318.813 82.0304V82.0281ZM353.749 19.814C355.076 19.8342 356.393 19.5855 357.619 19.0832C358.845 18.5809 359.953 17.8357 360.876 16.8936C361.822 15.9994 362.572 14.9232 363.08 13.7316C363.588 12.5399 363.844 11.258 363.832 9.96483C363.852 8.6536 363.6 7.35215 363.092 6.14077C362.584 4.92939 361.83 3.83378 360.876 2.92153C359.953 1.97945 358.845 1.23428 357.619 0.731997C356.393 0.229718 355.076 -0.0190205 353.749 0.00113377C352.441 -0.0111194 351.144 0.241685 349.938 0.743959C348.732 1.24623 347.643 1.98733 346.738 2.92153C345.785 3.83378 345.031 4.92939 344.523 6.14077C344.014 7.35215 343.763 8.6536 343.783 9.96483C343.771 11.258 344.026 12.5399 344.535 13.7316C345.043 14.9232 345.793 15.9994 346.738 16.8936C347.643 17.8278 348.732 18.5689 349.938 19.0712C351.144 19.5734 352.441 19.8262 353.749 19.814V19.814ZM361.934 82.0304C363.055 81.0409 362.904 79.0751 362.904 79.0751V31.2459C362.904 31.2459 362.841 29.4948 362.012 28.5546C361.347 27.9419 360.494 27.5663 359.588 27.4872H348.775C348.775 27.4872 346.714 27.6086 345.698 28.6198C344.682 29.6311 344.713 31.5311 344.713 31.5311V78.2791C344.713 78.2791 344.535 80.8405 345.474 82.0275C346.414 83.2146 348.468 83.0319 348.468 83.0319H358.425C358.425 83.0319 360.814 83.0199 361.934 82.0304ZM428.288 28.499C428.788 29.2852 428.788 32.453 428.788 32.453L428.613 85.2079C428.711 89.7631 427.397 94.239 424.847 98.0347C422.2 101.808 418.494 104.734 414.185 106.452C409.588 108.399 404.276 109.373 398.25 109.373C395.16 109.373 391.065 108.8 385.966 107.655C382.663 106.959 379.454 105.882 376.405 104.444C375.983 104.251 375.613 103.959 375.328 103.595C375.043 103.231 374.851 102.804 374.767 102.351C374.62 101.51 374.747 100.645 375.131 99.8809L377.529 94.3355C377.94 93.3988 378.698 92.653 379.647 92.2512C381.134 91.7198 381.975 91.6259 383.477 92.2094C387.841 93.962 392.498 94.8892 397.207 94.9425C401.147 94.9425 404.334 94.0454 406.768 92.2512C407.926 91.4473 408.865 90.3733 409.502 89.1247C410.138 87.876 410.453 86.4912 410.418 85.0934C410.418 85.0934 410.887 82.2216 408.309 82.0212C405.73 81.8208 404.513 84.243 400.104 84.2917C391.374 84.2917 384.421 81.7721 379.245 76.733C374.068 71.6939 371.48 64.5552 371.48 55.3168C371.48 46.0784 374.107 38.8443 379.361 33.6143C384.614 28.3843 391.761 25.7693 400.8 25.7693C403.539 25.7907 406.251 26.315 408.796 27.3154C411.5 28.3461 413.692 31.653 416.329 31.7246C418.965 31.7962 416.113 27.62 419.342 27.6017C421.302 27.5908 423.534 27.5977 425.764 27.6017C426.915 27.6017 427.788 27.7128 428.288 28.499ZM402.075 69.976C404.624 69.976 406.71 69.487 408.796 67.0362C410.882 64.5853 410.418 60.1744 410.418 60.1744V50.749C410.418 50.749 410.998 45.6715 408.796 43.034C406.594 40.3965 404.701 40.1995 401.611 40.1995C400.002 40.1667 398.411 40.5256 396.976 41.2447C395.541 41.9637 394.307 43.0207 393.383 44.3224C391.297 47.071 390.254 50.6976 390.254 55.2023C390.254 59.7833 391.297 63.3908 393.383 66.0249C395.469 68.659 398.366 69.976 402.075 69.976ZM500 55.3168C500 61.2721 498.667 66.4258 496.002 70.7777C493.367 75.1021 489.523 78.582 484.934 80.7987C480.222 83.1273 474.852 84.2917 468.826 84.2917C462.723 84.2917 457.353 83.1655 452.718 80.9132C448.174 78.745 444.397 75.2725 441.882 70.9495C439.294 66.5594 438 61.2721 438 55.0878C438 49.1324 439.333 43.9406 441.998 39.5123C444.602 35.141 448.424 31.6026 453.007 29.3196C457.681 26.9527 463.032 25.7693 469.058 25.7693C475.161 25.7693 480.55 26.9336 485.224 29.2623C489.795 31.4946 493.588 35.0236 496.118 39.3978C498.706 43.8261 500 49.1324 500 55.3168V55.3168ZM468.942 69.5179C472.65 69.5179 475.625 68.22 477.865 65.6241C480.106 63.0282 481.226 59.5924 481.226 55.3168C481.226 51.0412 480.125 47.5291 477.923 44.7805C476.901 43.4554 475.575 42.3902 474.053 41.6732C472.531 40.9562 470.859 40.608 469.174 40.6576C465.388 40.6576 462.375 41.9746 460.134 44.6087C457.894 47.2428 456.774 50.7358 456.774 55.0878C456.774 59.4397 457.875 62.9327 460.076 65.5668C462.278 68.2009 465.233 69.5179 468.942 69.5179Z" fill="#3C3C3C"/>
<path d="M109.912 0.00341797C123.262 0.00357674 134.536 10.6277 134.536 23.8208C134.536 23.9206 134.534 24.0202 134.532 24.1196L134.559 24.1753V106.954C134.559 111.58 133.635 116.162 131.844 120.436C130.052 124.711 127.426 128.595 124.115 131.867C120.805 135.138 116.874 137.733 112.549 139.503C108.223 141.274 103.587 142.185 98.9053 142.185H35.6504C26.1953 142.185 17.1271 138.473 10.4414 131.866C3.75581 125.259 4.07778e-05 116.297 0 106.954V44.4419C3.93667e-05 39.8153 0.922297 35.2338 2.71387 30.9595C4.50544 26.6852 7.13109 22.8012 10.4414 19.5298C13.7519 16.2583 17.6825 13.6636 22.0078 11.8931C26.3331 10.1225 30.9687 9.21047 35.6504 9.21045H44.0693C40.6855 9.19985 38.9417 9.19355 47.7949 9.21045H63.2812C95.8092 8.71839 94.8942 0.338129 109.912 0.00341797Z" fill="#FF7700"/>
<path d="M110.448 31.7794C115.112 31.7794 118.894 28.0425 118.894 23.4329C118.894 18.8233 115.112 15.0864 110.448 15.0864C105.783 15.0864 102.002 18.8233 102.002 23.4329C102.002 28.0425 105.783 31.7794 110.448 31.7794Z" fill="white"/>
<path d="M67.2717 115.128C89.3082 115.128 107.172 97.4739 107.172 75.6965C107.172 53.9192 89.3082 36.2651 67.2717 36.2651C45.2352 36.2651 27.3711 53.9192 27.3711 75.6965C27.3711 97.4739 45.2352 115.128 67.2717 115.128Z" fill="white"/>
<path d="M67.2783 103.618C82.8809 103.618 95.5293 91.1187 95.5293 75.6996C95.5293 60.2804 82.8809 47.7808 67.2783 47.7808C51.6757 47.7808 39.0273 60.2804 39.0273 75.6996C39.0273 91.1187 51.6757 103.618 67.2783 103.618Z" fill="#3C3C3C"/>
<rect x="156.959" y="94.2095" width="104.344" height="47.9736" rx="7" fill="#FCE7D5"/>
<path d="M172.606 131.318V127.039H177.501C178.733 127.039 179.825 126.855 180.776 126.487C181.748 126.098 182.57 125.558 183.24 124.866C183.91 124.175 184.418 123.364 184.763 122.435C185.131 121.484 185.315 120.436 185.315 119.29C185.315 118.101 185.131 117.042 184.763 116.113C184.418 115.162 183.91 114.351 183.24 113.681C182.57 113.011 181.748 112.503 180.776 112.158C179.825 111.812 178.733 111.639 177.501 111.639H172.606V107.359H177.209C179.349 107.359 181.219 107.673 182.818 108.3C184.418 108.926 185.747 109.791 186.806 110.893C187.865 111.974 188.654 113.217 189.173 114.622C189.713 116.005 189.983 117.442 189.983 118.933V119.647C189.983 121.073 189.713 122.478 189.173 123.861C188.654 125.245 187.865 126.498 186.806 127.622C185.747 128.746 184.418 129.643 182.818 130.313C181.219 130.983 179.349 131.318 177.209 131.318H172.606ZM168.65 131.318V107.359H173.254V131.318H168.65Z" fill="#D76A0B"/>
<path d="M202.211 131.804C200.654 131.804 199.282 131.556 198.093 131.059C196.904 130.562 195.899 129.892 195.078 129.049C194.257 128.184 193.63 127.211 193.198 126.131C192.787 125.05 192.582 123.926 192.582 122.759V122.078C192.582 120.868 192.798 119.722 193.23 118.642C193.684 117.539 194.322 116.567 195.143 115.724C195.986 114.859 197.002 114.189 198.19 113.714C199.379 113.217 200.719 112.968 202.211 112.968C203.702 112.968 205.042 113.217 206.231 113.714C207.42 114.189 208.425 114.859 209.246 115.724C210.089 116.567 210.726 117.539 211.159 118.642C211.591 119.722 211.807 120.868 211.807 122.078V122.759C211.807 123.926 211.591 125.05 211.159 126.131C210.748 127.211 210.132 128.184 209.311 129.049C208.489 129.892 207.484 130.562 206.296 131.059C205.107 131.556 203.745 131.804 202.211 131.804ZM202.211 127.946C203.313 127.946 204.242 127.709 204.999 127.233C205.755 126.736 206.328 126.077 206.717 125.255C207.106 124.413 207.301 123.462 207.301 122.402C207.301 121.322 207.095 120.371 206.685 119.549C206.296 118.707 205.712 118.047 204.934 117.572C204.177 117.075 203.27 116.826 202.211 116.826C201.152 116.826 200.233 117.075 199.455 117.572C198.698 118.047 198.115 118.707 197.704 119.549C197.294 120.371 197.088 121.322 197.088 122.402C197.088 123.462 197.283 124.413 197.672 125.255C198.082 126.077 198.666 126.736 199.422 127.233C200.179 127.709 201.108 127.946 202.211 127.946Z" fill="#D76A0B"/>
<path d="M223.566 131.804C222.032 131.804 220.703 131.545 219.579 131.026C218.476 130.508 217.547 129.816 216.79 128.951C216.056 128.087 215.504 127.114 215.137 126.034C214.77 124.953 214.586 123.851 214.586 122.727V122.111C214.586 120.922 214.77 119.787 215.137 118.707C215.526 117.604 216.099 116.632 216.855 115.789C217.612 114.924 218.541 114.243 219.643 113.746C220.767 113.227 222.064 112.968 223.534 112.968C225.068 112.968 226.441 113.271 227.651 113.876C228.862 114.459 229.823 115.281 230.537 116.34C231.272 117.399 231.682 118.631 231.769 120.036H227.392C227.284 119.128 226.895 118.372 226.225 117.766C225.576 117.161 224.679 116.859 223.534 116.859C222.54 116.859 221.708 117.096 221.038 117.572C220.389 118.047 219.903 118.707 219.579 119.549C219.254 120.371 219.092 121.322 219.092 122.402C219.092 123.44 219.244 124.38 219.546 125.223C219.87 126.066 220.357 126.725 221.005 127.201C221.675 127.676 222.529 127.914 223.566 127.914C224.344 127.914 225.014 127.773 225.576 127.492C226.138 127.211 226.581 126.822 226.906 126.325C227.251 125.828 227.468 125.266 227.554 124.639H231.931C231.844 126.066 231.423 127.32 230.666 128.4C229.932 129.459 228.948 130.291 227.716 130.897C226.506 131.502 225.122 131.804 223.566 131.804Z" fill="#D76A0B"/>
<path d="M241.928 131.74C239.507 131.74 237.605 131.232 236.222 130.216C234.86 129.178 234.147 127.752 234.082 125.936H238.134C238.199 126.541 238.534 127.093 239.14 127.59C239.745 128.087 240.696 128.335 241.993 128.335C243.073 128.335 243.927 128.141 244.554 127.752C245.202 127.363 245.526 126.833 245.526 126.163C245.526 125.58 245.278 125.115 244.781 124.769C244.305 124.423 243.484 124.196 242.317 124.088L240.761 123.926C238.794 123.71 237.281 123.148 236.222 122.24C235.163 121.333 234.633 120.122 234.633 118.609C234.633 117.399 234.936 116.383 235.541 115.562C236.146 114.74 236.978 114.124 238.037 113.714C239.118 113.282 240.35 113.065 241.733 113.065C243.895 113.065 245.645 113.541 246.985 114.492C248.325 115.443 249.028 116.837 249.093 118.674H245.04C244.997 118.069 244.694 117.55 244.132 117.118C243.57 116.686 242.76 116.47 241.701 116.47C240.75 116.47 240.015 116.653 239.496 117.021C238.977 117.388 238.718 117.864 238.718 118.447C238.718 119.009 238.923 119.441 239.334 119.744C239.766 120.047 240.458 120.252 241.409 120.36L242.965 120.522C245.04 120.738 246.661 121.311 247.828 122.24C249.017 123.17 249.611 124.423 249.611 126.001C249.611 127.168 249.287 128.184 248.639 129.049C248.012 129.892 247.126 130.551 245.98 131.026C244.835 131.502 243.484 131.74 241.928 131.74Z" fill="#D76A0B"/>
</g>
<defs>
<clipPath id="clip0_4381_14821">
<rect width="500" height="143" fill="white"/>
</clipPath>
</defs>
</svg>
